<?xml version="1.0" encoding="UTF-8"?>
<svg id="Layer_2" data-name="Layer 2" xmlns="http://www.w3.org/2000/svg" viewBox="0 0 425.2 425.2">
  <defs>
    <style>
      .cls-1 {
        stroke: #fff;
        stroke-miterlimit: 10;
        stroke-width: .75px;
      }

      .cls-2 {
        fill: none;
      }

      .cls-3 {
        fill: #cb2026;
      }
    </style>
  </defs>
  <g id="Layer_1-2" data-name="Layer 1">
    <g>
      <rect class="cls-2" width="425.2" height="425.2"/>
      <path d="M57.1,48.79s-8.03-.28-11.01-.4c-2.98-.12-7.57-.57-7.91,4.01-.39,5.14,2.86,4.87,5.16,6.59,1.38,1.03,2.47,2.52,2.47,4.47,0,1.74-.08,13.99.15,19.61.23,5.62.36,17.66.02,24.88-.34,7.22-.34,8.37-3.55,9.86-3.35,1.55-3.78,3.06-3.55,6.72.16,2.63,1.95,4.43,8.71,3.97,0,0,5.48-.51,10.3-.51s9.65.65,13.09.65,6.08-.86,6.08-5.21-2.64-5.16-3.78-5.96c-1.15-.8-3.1-.92-3.1-4.93s-.23-15.25-.23-15.25c0,0,.11-3.44,2.29-3.67,2.18-.23,2.98-.17,6.19-.17s6.08.06,6.08.06c0,0,2.18.23,2.18,3.32s.28,11.12.28,14.79c0,3.81.29,4.47-1.89,5.73-2.11,1.22-4.24,2.06-4.24,5.85s1.61,5.39,5.39,5.39,5.96-.59,13.99-.59,12.15,1.22,15.36-.04c3.21-1.26,2.52-4.75,2.52-6.47s-.79-3.25-4.36-4.36c-3.32-1.03-3.62-5.62-3.62-9.86,0,0-.16-19.49-.16-27.52s.11-12.81.57-16.48c.46-3.67,1.74-4.37,3.44-5.16,2.5-1.16,2.41-3.36,2.41-5.42s-.92-4.36-5.5-4.36-7.34.34-13.3.34-10.2-.34-12.73-.34-4.7,1.03-4.7,3.9-.16,3.89,3.1,5.73c3.44,1.95,2.87,5.73,2.87,10.89v6.08c0,1.38.11,4.58-3.67,4.58h-9.86s-2.18-.11-2.64-1.83c-.46-1.72-.46-4.7-.46-8.94,0-5.85.23-8.71,2.29-10.09,2.06-1.38,4.13-1.15,4.13-5.5s-3.21-4.82-4.59-4.82-14.22.46-14.22.46Z"/>
      <path d="M170.22,112.65c-2.18-.23-4.82-1.03-3.21-20.64,1.61-19.61-2.75-21.78-5.62-23.73-2.69-1.83-9.99-4.13-17.44-3.44-6.18.57-8.24,1.37-12.14,2.75,0,0-6.65,2.98-9.63,5.62-2.98,2.64-2.52,6.99-2.18,10.09.34,3.1,1.26,6.54,5.39,6.42,4.13-.12,6.19-3.21,8.94-7.22,2.75-4.01,4.47-6.08,7.11-6.08,3.67,0,4.59,3.78,4.59,6.53s.69,6.88-2.29,7.91c-2.98,1.03-12.96,2.52-19.61,7.45-6.65,4.93-6.65,13.64-6.65,15.71s-.46,8.37,5.39,12.96c5.85,4.58,14.9,1.26,17.66-.23,2.75-1.49,5.39-3.55,5.39-3.55,0,0,3.55,5.96,9.06,5.96s18.23-5.04,19.03-11.01c.8-5.96-1.6-5.27-3.78-5.5ZM142.01,113.57c-.69,0-2.75.23-2.98-4.13-.23-4.36,1.6-6.08,4.13-7.22,2.52-1.15,2.52.8,2.52,4.93s-1.95,6.42-3.67,6.42Z"/>
      <path d="M198.01,65.76c-2.57-1.29-5.5-.23-10.43,1.26-4.93,1.49-6.99,2.06-10.89,3.78-3.9,1.72-5.85,3.67-5.85,6.76s2.75,4.01,5.16,4.7c2.41.69,4.24,2.06,4.24,6.76v24.08s.23,3.78-4.01,5.73c-4.24,1.95-3.55,4.7-3.55,5.62s.92,4.24,5.27,4.24,7.04-.41,13.23-.41,11.18.56,15.88.56,5.39-2.98,5.39-5.73-1.49-4.36-5.5-5.39c-4.01-1.03-4.92-3.48-4.92-6.58v-23.05s.92-2.52,3.1-.11c2.18,2.41,4.01,6.53,6.19,7.68,2.18,1.15,6.54,1.03,8.83-2.98,2.29-4.01,4.01-9.98.11-18.46-3.9-8.48-8.25-9.06-11.69-6.88-3.44,2.18-5.96,6.42-6.88,6.65-.92.23-1.95-1.37-1.95-3.32s.11-4.01-1.72-4.93Z"/>
      <path d="M238.77,66.66c-6.21,0-8.43-.19-11.43-.19s-6.55,1.2-6.55,5.19c0,3.22,1.1,4.46,3.87,6.33,2.46,1.67,3.46,5.33,4.45,7.66s16.75,39.72,16.75,39.72c0,0,2.33,5.88,6.99,5.88s6.32-1.88,7.99-5.33c1.66-3.44,12.32-31.06,15.2-37.17,2.88-6.1,4.22-9.99,6.32-11.32,2.11-1.33,3.66-2.66,3.66-6.21s-3-4.8-5.1-4.8-2.77.25-7.1.25-5.88-.31-8.1-.19c-2.22.11-5.55,1.08-5.55,4.18s.1,4.1,1.55,5.47c2,1.89,2,3.96,1.44,6.18-.55,2.22-3,9.21-3,9.21,0,0-.55,2-2.11,2-1.22,0-1.95-2.08-2.66-3.99-1.11-3-2.33-6.55-2.88-8.54-.55-2-.44-3.66,1.11-4.66,1.55-1,2.44-1.66,2.33-5.1-.13-4.1-3.33-4.88-6.21-4.88s-5.88.32-10.98.32Z"/>
      <path d="M300.59,102.62c1-.67,2.99-1.11,2.99-1.11l21.19-5.77s3.48-1.06,3.66-4.28c.11-1.94-.11-4.82-1.66-8.59-1.55-3.77-5.33-9.87-10.76-13.42-5.44-3.55-14.98-4.55-22.3-.44-7.32,4.1-11.98,10.87-14.87,22.63-2.88,11.76.55,27.18,5.77,32.51,5.21,5.33,9.87,6.43,17.86,6.88,7.99.44,15.09-2.55,20.08-6.99,4.99-4.44,6.1-8.88,4.99-12.87-1.11-3.99-3.99-2.11-6.1-.55-2.11,1.55-8.54,5.66-15.31,2-6.77-3.66-6.55-9.32-5.55-9.98ZM298.59,84.86c.22-1.55.78-4.66,3.33-5.21,2.55-.56,4.33,1.77,5.77,4.44,1.44,2.66-.44,3.2-.44,3.2l-6.66,1.73c-2.22.44-2.22-2.6-2-4.15Z"/>
      <path d="M340.58,67.34c-6.39,0-9.65-.3-12.75-.3s-5.42,2.33-5.42,5.81,2.68,4.14,4.07,5.04c2.34,1.51,4.07,4.65,5.42,8.14,1.36,3.49,11.24,31.97,11.24,31.97,0,0,2.33,6.01.97,10.46-1.36,4.46-5.23,6.01-8.14,4.84-2.91-1.16-7.73-4.95-12.4,2.91-3.68,6.2.78,13.18,9.88,13.18,5.62,0,13.03-3.39,17.05-9.3,4.21-6.19,9.49-16.66,13.17-26.16,3.68-9.49,8.91-20.54,11.43-26.15,2.52-5.62,3.87-8.91,6.39-10.07,2.52-1.16,3.49-2.13,3.49-5.43s-2.33-5.33-5.33-5.33-3.58.4-7.26.4-5.62-.3-8.33-.3-3.95,1.83-3.87,5.23c.04,1.92.58,2.66,1.74,3.49,1.01.72,2.91,1.55,1.94,5.04-.97,3.49-3.49,9.11-3.49,9.11,0,0-.97,1.94-2.13,1.94s-3.1-3.68-3.68-4.84c-.58-1.16-2.22-6.03-1.36-8.53.29-.84.57-1.58,1.55-2.13,1.51-.84,2.12-2.13,2.12-5.04,0-3.1-1.93-4.46-5.03-4.46s-7.21.5-11.28.5Z"/>
      <rect class="cls-3" x="39.54" y="134.44" width="278.06" height="12"/>
      <path d="M336.96,222.81c-2.18-.23-4.81-1.03-3.21-20.63,1.6-19.6-2.75-21.78-5.62-23.72-2.69-1.83-9.99-4.13-17.44-3.44-6.17.57-8.24,1.38-12.13,2.75,0,0-6.65,2.98-9.63,5.62-2.98,2.64-2.52,6.99-2.18,10.09.35,3.1,1.26,6.53,5.39,6.42,4.13-.11,6.19-3.21,8.94-7.22,2.75-4.01,4.47-6.07,7.11-6.07,3.67,0,4.58,3.78,4.58,6.53s.69,6.88-2.29,7.91c-2.98,1.03-12.95,2.52-19.6,7.45-6.65,4.93-6.65,13.64-6.65,15.7s-.46,8.37,5.39,12.95c5.85,4.58,14.9,1.26,17.65-.23,2.75-1.49,5.39-3.55,5.39-3.55,0,0,3.55,5.96,9.05,5.96s18.22-5.04,19.03-11c.8-5.96-1.61-5.27-3.78-5.5ZM308.77,223.73c-.69,0-2.75.23-2.98-4.12-.23-4.36,1.6-6.08,4.13-7.22,2.52-1.15,2.52.8,2.52,4.93s-1.95,6.42-3.67,6.42Z"/>
      <path d="M161.8,175.94c-2.57-1.28-5.5-.23-10.43,1.26-4.93,1.49-6.99,2.06-10.89,3.78-3.9,1.72-5.85,3.67-5.85,6.76s2.75,4.01,5.16,4.7c2.41.69,4.24,2.06,4.24,6.76v24.07s.23,3.78-4.01,5.73c-4.24,1.95-3.55,4.7-3.55,5.62s.92,4.24,5.27,4.24,6.19-.31,12.38-.31,12.02.47,16.72.47,5.39-2.98,5.39-5.73-1.49-4.36-5.5-5.39c-4.01-1.03-4.92-3.48-4.92-6.57v-23.04s.92-2.52,3.09-.11c2.18,2.41,4.01,6.53,6.19,7.68,2.18,1.15,6.53,1.03,8.82-2.98,2.29-4.01,4.01-9.97.11-18.45-3.9-8.48-8.25-9.06-11.69-6.88-3.44,2.18-5.96,6.42-6.88,6.65-.92.23-1.95-1.37-1.95-3.32s.11-4.01-1.72-4.93Z"/>
      <rect class="cls-3" x="19.03" y="244.59" width="382.93" height="12"/>
      <path d="M33,158.99c-5.98,0-6.76-.44-8.65-.44s-6.45,1.26-6.45,5.35,1.89,4.72,4.09,5.82c2.2,1.1,3.34,2.43,4.25,8.18.94,5.98.28,42.94.28,44.51s-.28,3.62-2.48,5.19c-2.2,1.57-5.66,1.42-5.66,6.61s3.62,4.4,5.19,4.4,6.45-.22,11.01-.22c5.35,0,8.81.22,13.06.22s5.03-1.89,5.03-5.03-2.2-4.25-5.98-5.35c-3.78-1.1-6.29-2.83-6.29-9.75v-15.57s-.63-3.15,2.36-.16c2.99,2.99,19.74,28.09,19.74,28.09,0,0,3.41,7.69,12.2,7.69,6.71,0,6.76-3.54,6.76-10.14v-53.01s-.31-5.03,3.15-6.13c4.09-1.3,4.72-1.1,4.72-6.13,0-4.09-2.99-4.47-5.66-4.47s-5.35.35-10.38.35-8.65-.51-12.27-.51-4.4,2.58-4.4,5.26,1.26,5.03,4.88,5.66c4.56.79,5.37,2.39,5.82,5.82.47,3.62.47,10.85.63,13.21.16,2.36.51,5.35-.79,5.35-2.52,0-7.96-9.18-13.21-18.09-6.76-11.48-8.18-16.99-11.64-16.99-3.94,0-5.51.28-9.28.28Z"/>
      <path d="M109.24,176.04c-13.22,0-26.04,12.82-26.64,30.85-.6,18.03,8.81,33.85,27.04,33.85s29.04-13.22,29.04-32.65-11.82-32.05-29.44-32.05ZM111.45,227.12c-3.81,0-5.21-14.62-5.41-18.63-.2-4.01-.4-19.83,3.21-19.83,3.81,0,4.61,6.41,5.41,16.42.8,10.01.6,22.03-3.2,22.03Z"/>
      <path d="M201.96,179.27c-7.61,2.8-8.81,3.21-10.81,4.01-2,.8-4.41,1.6-4.41,5.41,0,4.21,8.02,3.39,8.21,7.81.2,4.61.6,15.02.6,21.63s.25,9.58-2.2,11.02c-1.97,1.15-4.61,1.8-4.61,5.61s2.8,4.61,5.41,4.61,6.01-.54,10.62-.54,6.52.23,9.61.14c4.6-.13,6.81-.6,6.81-3.81s-1.2-3.8-2.4-4.81c-1.2-1-2-3.6-2-9.21v-24.44s-.4-3.7,4.01-3.21c4.49.5,6.79,2.69,6.79,12.42,0,7.04.43,11.02.23,15.82-.2,4.81.6,6.01-1,7.21-1.6,1.2-3,3.61-3,5.61s.8,4.41,6.01,4.41,3.6-.14,8.01-.14,4.81.14,8.61.14,4.41-2.21,4.41-4.81-3.2-3.21-3.2-5.81-.4-26.44-.4-29.04,0-5.61,3.61-5.61,7.39.96,7.39,11.62c0,8.85.4,11.82.4,16.22s-.18,5.01-.98,6.61c-.8,1.6-3.61,2-3.61,6.41s2.81,4.61,5.81,4.61,5.12-.45,10.33-.45,7.09.14,9.9.14c3.21,0,5.21-.29,5.21-5.1,0-4.11-2.8-3.47-4.61-5.21-2.04-1.96-1.8-8.21-1.8-20.83s1.6-20.63-5.01-26.64c-6.61-6.01-12.42-4.61-17.23-2.6-4.81,2-10.62,7.01-10.62,7.01,0,0-3.6-8.61-11.62-8.61s-11.62,3.61-14.02,5.21c-2.4,1.6-2.8,2.6-4.21,2.6s-1.6-4.01-1.6-5.21,0-4.41-4.41-3c-4.41,1.4-8.21,2.8-8.21,2.8Z"/>
      <path d="M396.25,199.3c0,2.61.4,22.56.4,25.16,0,7.12,4.72,2.33,4.62,9.69-.04,3.15-3,4.9-5.83,4.81-3.8-.12-4.21-.24-8.61-.24s-2.8.24-8.01.24-6.01-2.4-6.01-4.41.49-3.91,2.54-5.42c1.2-.89,1.27-2.59,1.47-7.4.2-4.81.15-8.79.15-15.82,0-8.42-2.05-11.17-6.26-12.57-5.25-1.75-4.91,4.59-4.91,4.59v23.2c0,5.61.8,8.21,2,9.21,1.2,1,2.4,1.6,2.4,4.81s-2.2,3.81-6.81,3.81-4.91-.24-9.52-.24-7.02.64-9.63.64-5.5-.88-5.5-4.69,2.22-4.37,3.61-5.53c2.2-1.81,2.21-4.41,2.21-11.02s-.4-17.02-.6-21.63c-.19-4.42-8.21-3.6-8.21-7.81,0-3.81,2.41-4.61,4.41-5.41,2-.8,3.2-1.2,10.81-4.01,0,0,3.81-1.4,8.21-2.8,4.41-1.4,4.41,1.8,4.41,3s.2,5.21,1.6,5.21,1.8-1,4.21-2.6c2.4-1.6,6.01-5.21,14.02-5.21,9.11,0,11.62,8.61,11.62,8.61,1.2,3.21,1.2,13.82,1.2,13.82Z"/>
      <path d="M390.77,161.92h4.16c1.66,0,2.69.9,2.69,2.32,0,1.06-.47,1.94-1.54,2.24v.03c1.03.2,1.24.95,1.33,1.82.07.87.02,1.83.52,2.44h-1.31c-.33-.36-.15-1.31-.32-2.18-.12-.87-.33-1.6-1.47-1.6h-2.87v3.78h-1.18v-8.84ZM394.39,166c1.1,0,2.04-.29,2.04-1.57,0-.87-.47-1.51-1.57-1.51h-2.92v3.08h2.45Z"/>
      <path d="M385.92,166.34c0-4.42,3.58-8,8-8h0c4.42,0,8,3.58,8,8h0c0,4.42-3.58,8-8,8h0c-4.42,0-8-3.58-8-8h0ZM386.95,166.34c0,3.85,3.12,6.96,6.97,6.97h0c3.85,0,6.96-3.12,6.97-6.97h0c0-3.85-3.12-6.96-6.97-6.97h0c-3.85,0-6.96,3.12-6.97,6.97h0Z"/>
      <path class="cls-1" d="M50.47,269.98l-5.97,4.95c-1.62-1.95-3.85-2.93-6.66-2.93s-5.39,1.08-7.31,3.26-2.88,4.92-2.88,8.26.95,6.04,2.86,8.23c1.91,2.19,4.27,3.28,7.08,3.28,3.15,0,5.57-1.28,7.26-3.84l6.46,4.9c-1.43,2.05-3.27,3.6-5.54,4.65-2.27,1.04-4.67,1.57-7.18,1.57-5.57,0-10.13-1.72-13.67-5.15-3.55-3.43-5.32-7.98-5.32-13.64s1.77-10.2,5.32-13.64c3.55-3.43,8.1-5.15,13.67-5.15,2.22,0,4.41.42,6.56,1.26,2.15.84,3.93,2.17,5.32,3.99Z"/>
      <path class="cls-1" d="M63.29,297.15c-3.55-3.43-5.32-7.98-5.32-13.64s1.77-10.2,5.32-13.64c3.55-3.43,8.1-5.15,13.67-5.15s10.12,1.72,13.67,5.15c3.55,3.43,5.32,7.98,5.32,13.64s-1.77,10.2-5.32,13.64c-3.55,3.43-8.1,5.15-13.67,5.15s-10.13-1.72-13.67-5.15ZM69.03,275.23c-2.01,2.16-3.01,4.92-3.01,8.28s1,6.13,3.01,8.28c2.01,2.16,4.65,3.23,7.93,3.23s5.92-1.08,7.93-3.23c2-2.15,3.01-4.92,3.01-8.28s-1-6.13-3.01-8.28c-2.01-2.15-4.65-3.23-7.93-3.23s-5.92,1.08-7.93,3.23Z"/>
      <path class="cls-1" d="M105.55,301.39v-35.76h11.73l8.1,23.33h.1l8.15-23.33h11.68v35.76h-7.76v-27.42h-.1l-9.25,27.42h-5.92l-8.9-27.42h-.1v27.42h-7.76Z"/>
      <path class="cls-1" d="M156.81,301.39v-35.76h11.73l8.1,23.33h.1l8.15-23.33h11.68v35.76h-7.76v-27.42h-.1l-9.25,27.42h-5.92l-8.9-27.42h-.1v27.42h-7.76Z"/>
      <path class="cls-1" d="M208.36,301.39v-35.76h23.91v7.27h-16.16v6.67h15.26v7.27h-15.26v7.27h17.05v7.27h-24.81Z"/>
      <path class="cls-1" d="M243.71,301.39v-35.76h13.62c8.85,0,13.27,3.62,13.27,10.86,0,2.56-.66,4.72-1.99,6.49-1.33,1.77-3.2,2.87-5.62,3.31l8.95,15.1h-9.3l-7.36-14.29h-3.83v14.29h-7.76ZM251.47,272.3v8.13h4.57c.93,0,1.68-.03,2.26-.1.58-.07,1.24-.21,1.99-.43.75-.22,1.31-.62,1.69-1.21.38-.59.57-1.34.57-2.25,0-2.76-2.01-4.14-6.02-4.14h-5.07Z"/>
      <path class="cls-1" d="M309.24,269.98l-5.97,4.95c-1.62-1.95-3.84-2.93-6.66-2.93s-5.39,1.08-7.31,3.26c-1.92,2.17-2.88,4.92-2.88,8.26s.95,6.04,2.86,8.23c1.91,2.19,4.27,3.28,7.08,3.28,3.15,0,5.57-1.28,7.26-3.84l6.46,4.9c-1.43,2.05-3.27,3.6-5.54,4.65-2.27,1.04-4.67,1.57-7.18,1.57-5.57,0-10.13-1.72-13.67-5.15s-5.32-7.98-5.32-13.64,1.77-10.2,5.32-13.64c3.55-3.43,8.1-5.15,13.67-5.15,2.22,0,4.41.42,6.56,1.26,2.15.84,3.93,2.17,5.32,3.99Z"/>
      <path class="cls-1" d="M318.54,301.39v-35.76h7.76v35.76h-7.76Z"/>
      <path class="cls-1" d="M334.05,301.39l15.21-35.76h6.41l15.31,35.76h-8.75l-3.03-7.58h-13.67l-2.93,7.58h-8.55ZM356.57,287.15l-4.33-11.11-4.28,11.11h8.6Z"/>
      <path class="cls-1" d="M379.14,301.39v-35.76h7.76v28.48h14.37v7.27h-22.12Z"/>
      <path class="cls-1" d="M49.4,353.39l15.21-35.76h6.41l15.31,35.76h-8.75l-3.03-7.58h-13.67l-2.93,7.58h-8.55ZM71.92,339.15l-4.33-11.11-4.28,11.11h8.6Z"/>
      <path class="cls-1" d="M94.19,353.39v-35.76h13.08c8.92,0,13.38,3.62,13.38,10.86s-4.34,10.96-13.03,10.96h-5.67v13.94h-7.76ZM101.95,324.3v8.48h5.17c3.65,0,5.47-1.43,5.47-4.29s-2.22-4.19-6.66-4.19h-3.98Z"/>
      <path class="cls-1" d="M129.84,353.39v-35.76h13.08c8.92,0,13.37,3.62,13.37,10.86s-4.34,10.96-13.03,10.96h-5.67v13.94h-7.76ZM137.59,324.3v8.48h5.17c3.65,0,5.47-1.43,5.47-4.29s-2.22-4.19-6.66-4.19h-3.98Z"/>
      <path class="cls-1" d="M188.21,320.46l-5.32,5.91c-.6-.77-1.43-1.36-2.49-1.77-1.06-.4-2.11-.61-3.13-.61-1.29,0-2.49.31-3.58.93-1.09.62-1.64,1.54-1.64,2.75,0,.88.3,1.61.89,2.2.6.59,1.37,1.06,2.31,1.41.94.35,2,.69,3.16,1.01,1.16.32,2.32.72,3.48,1.19,1.16.47,2.21,1.05,3.16,1.74.94.69,1.72,1.66,2.31,2.9.6,1.25.89,2.71.89,4.39,0,3.81-1.29,6.72-3.88,8.74-2.59,2.02-5.82,3.03-9.7,3.03-4.71,0-8.65-1.5-11.83-4.5l5.52-6.16c.8,1.04,1.8,1.87,3.01,2.47s2.46.91,3.75.91c1.39,0,2.63-.33,3.73-.99,1.09-.66,1.64-1.57,1.64-2.75,0-1.01-.41-1.87-1.22-2.58-.81-.71-1.83-1.23-3.06-1.57-1.23-.34-2.55-.77-3.98-1.31-1.43-.54-2.75-1.13-3.98-1.77s-2.25-1.62-3.06-2.96c-.81-1.33-1.22-2.92-1.22-4.77,0-3.64,1.32-6.48,3.95-8.54,2.63-2.05,5.79-3.08,9.47-3.08,4.41,0,8,1.25,10.79,3.74Z"/>
      <path class="cls-1" d="M224.2,353.39v-28.79h-10.04v-6.97h27.84v6.97h-10.04v28.79h-7.76Z"/>
      <path class="cls-1" d="M250.55,353.39v-35.76h23.91v7.27h-16.16v6.67h15.26v7.27h-15.26v7.27h17.05v7.27h-24.81Z"/>
      <path class="cls-1" d="M282.27,353.39l15.21-35.76h6.41l15.31,35.76h-8.75l-3.03-7.58h-13.67l-2.93,7.58h-8.55ZM304.79,339.15l-4.33-11.11-4.28,11.11h8.6Z"/>
      <path class="cls-1" d="M327.06,353.39v-35.76h11.73l8.1,23.33h.1l8.15-23.33h11.68v35.76h-7.76v-27.42h-.1l-9.25,27.42h-5.92l-8.9-27.42h-.1v27.42h-7.76Z"/>
    </g>
  </g>
</svg>