<?xml version="1.0" encoding="UTF-8"?>
<svg id="Layer_2" xmlns="http://www.w3.org/2000/svg" version="1.1" viewBox="0 0 425.2 425.2">
  <!-- Generator: Adobe Illustrator 30.0.0, SVG Export Plug-In . SVG Version: 2.1.1 Build 123)  -->
  <defs>
    <style>
      .st0 {
        fill: none;
      }

      .st1 {
        stroke: #000;
        stroke-miterlimit: 10;
        stroke-width: .8px;
      }

      .st2 {
        fill: #cb2026;
      }
    </style>
  </defs>
  <rect class="st0" width="425.2" height="425.2"/>
  <path d="M57.1,48.8s-8-.3-11-.4c-3-.1-7.6-.6-7.9,4-.4,5.1,2.9,4.9,5.2,6.6,1.4,1,2.5,2.5,2.5,4.5s0,14,.2,19.6c.2,5.6.4,17.7,0,24.9-.3,7.2-.3,8.4-3.5,9.9-3.3,1.6-3.8,3.1-3.5,6.7.2,2.6,2,4.4,8.7,4,0,0,5.5-.5,10.3-.5s9.7.7,13.1.7,6.1-.9,6.1-5.2-2.6-5.2-3.8-6c-1.2-.8-3.1-.9-3.1-4.9s-.2-15.2-.2-15.2c0,0,.1-3.4,2.3-3.7,2.2-.2,3-.2,6.2-.2s6.1,0,6.1,0c0,0,2.2.2,2.2,3.3s.3,11.1.3,14.8.3,4.5-1.9,5.7c-2.1,1.2-4.2,2.1-4.2,5.8s1.6,5.4,5.4,5.4,6-.6,14-.6,12.2,1.2,15.4,0,2.5-4.8,2.5-6.5-.8-3.2-4.4-4.4c-3.3-1-3.6-5.6-3.6-9.9,0,0-.2-19.5-.2-27.5s.1-12.8.6-16.5,1.7-4.4,3.4-5.2c2.5-1.2,2.4-3.4,2.4-5.4s-.9-4.4-5.5-4.4-7.3.3-13.3.3-10.2-.3-12.7-.3-4.7,1-4.7,3.9-.2,3.9,3.1,5.7c3.4,2,2.9,5.7,2.9,10.9v6.1c0,1.4.1,4.6-3.7,4.6h-9.9s-2.2-.1-2.6-1.8-.5-4.7-.5-8.9.2-8.7,2.3-10.1,4.1-1.2,4.1-5.5-3.2-4.8-4.6-4.8-14.2.5-14.2.5h0Z"/>
  <path d="M170.2,112.7c-2.2-.2-4.8-1-3.2-20.6s-2.8-21.8-5.6-23.7c-2.7-1.8-10-4.1-17.4-3.4-6.2.6-8.2,1.4-12.1,2.8,0,0-6.7,3-9.6,5.6-3,2.6-2.5,7-2.2,10.1.3,3.1,1.3,6.5,5.4,6.4,4.1-.1,6.2-3.2,8.9-7.2s4.5-6.1,7.1-6.1,4.6,3.8,4.6,6.5.7,6.9-2.3,7.9c-3,1-13,2.5-19.6,7.4-6.7,4.9-6.7,13.6-6.7,15.7s-.5,8.4,5.4,13c5.8,4.6,14.9,1.3,17.7-.2,2.8-1.5,5.4-3.6,5.4-3.6,0,0,3.6,6,9.1,6s18.2-5,19-11c.8-6-1.6-5.3-3.8-5.5h0ZM142,113.6c-.7,0-2.8.2-3-4.1s1.6-6.1,4.1-7.2c2.5-1.2,2.5.8,2.5,4.9s-1.9,6.4-3.7,6.4h0Z"/>
  <path d="M198,65.8c-2.6-1.3-5.5-.2-10.4,1.3-4.9,1.5-7,2.1-10.9,3.8s-5.9,3.7-5.9,6.8,2.8,4,5.2,4.7c2.4.7,4.2,2.1,4.2,6.8v24.1s.2,3.8-4,5.7c-4.2,1.9-3.6,4.7-3.6,5.6s.9,4.2,5.3,4.2,7-.4,13.2-.4,11.2.6,15.9.6,5.4-3,5.4-5.7-1.5-4.4-5.5-5.4-4.9-3.5-4.9-6.6v-23s.9-2.5,3.1-.1c2.2,2.4,4,6.5,6.2,7.7,2.2,1.2,6.5,1,8.8-3,2.3-4,4-10,.1-18.5s-8.2-9.1-11.7-6.9-6,6.4-6.9,6.7-1.9-1.4-1.9-3.3.1-4-1.7-4.9h0Z"/>
  <path d="M238.8,66.7c-6.2,0-8.4-.2-11.4-.2s-6.6,1.2-6.6,5.2,1.1,4.5,3.9,6.3c2.5,1.7,3.5,5.3,4.4,7.7s16.8,39.7,16.8,39.7c0,0,2.3,5.9,7,5.9s6.3-1.9,8-5.3c1.7-3.4,12.3-31.1,15.2-37.2,2.9-6.1,4.2-10,6.3-11.3,2.1-1.3,3.7-2.7,3.7-6.2s-3-4.8-5.1-4.8-2.8.2-7.1.2-5.9-.3-8.1-.2c-2.2.1-5.5,1.1-5.5,4.2s.1,4.1,1.5,5.5c2,1.9,2,4,1.4,6.2-.5,2.2-3,9.2-3,9.2,0,0-.5,2-2.1,2s-2-2.1-2.7-4c-1.1-3-2.3-6.6-2.9-8.5-.6-2-.4-3.7,1.1-4.7,1.6-1,2.4-1.7,2.3-5.1-.1-4.1-3.3-4.9-6.2-4.9s-5.9.3-11,.3h0Z"/>
  <path d="M300.6,102.6c1-.7,3-1.1,3-1.1l21.2-5.8s3.5-1.1,3.7-4.3c.1-1.9-.1-4.8-1.7-8.6-1.5-3.8-5.3-9.9-10.8-13.4-5.4-3.6-15-4.6-22.3-.4-7.3,4.1-12,10.9-14.9,22.6-2.9,11.8.5,27.2,5.8,32.5,5.2,5.3,9.9,6.4,17.9,6.9,8,.4,15.1-2.6,20.1-7,5-4.4,6.1-8.9,5-12.9-1.1-4-4-2.1-6.1-.6-2.1,1.6-8.5,5.7-15.3,2s-6.5-9.3-5.5-10h0ZM298.6,84.9c.2-1.6.8-4.7,3.3-5.2,2.5-.6,4.3,1.8,5.8,4.4,1.4,2.7-.4,3.2-.4,3.2l-6.7,1.7c-2.2.4-2.2-2.6-2-4.2h0Z"/>
  <path d="M340.6,67.3c-6.4,0-9.6-.3-12.8-.3s-5.4,2.3-5.4,5.8,2.7,4.1,4.1,5c2.3,1.5,4.1,4.7,5.4,8.1,1.4,3.5,11.2,32,11.2,32,0,0,2.3,6,1,10.5-1.4,4.5-5.2,6-8.1,4.8-2.9-1.2-7.7-4.9-12.4,2.9-3.7,6.2.8,13.2,9.9,13.2s13-3.4,17-9.3c4.2-6.2,9.5-16.7,13.2-26.2,3.7-9.5,8.9-20.5,11.4-26.2,2.5-5.6,3.9-8.9,6.4-10.1,2.5-1.2,3.5-2.1,3.5-5.4s-2.3-5.3-5.3-5.3-3.6.4-7.3.4-5.6-.3-8.3-.3-4,1.8-3.9,5.2c0,1.9.6,2.7,1.7,3.5,1,.7,2.9,1.6,1.9,5s-3.5,9.1-3.5,9.1c0,0-1,1.9-2.1,1.9s-3.1-3.7-3.7-4.8-2.2-6-1.4-8.5c.3-.8.6-1.6,1.5-2.1,1.5-.8,2.1-2.1,2.1-5s-1.9-4.5-5-4.5-7.2.5-11.3.5h0Z"/>
  <rect class="st2" x="39.5" y="134.4" width="278.1" height="12"/>
  <path d="M337,222.8c-2.2-.2-4.8-1-3.2-20.6s-2.8-21.8-5.6-23.7c-2.7-1.8-10-4.1-17.4-3.4-6.2.6-8.2,1.4-12.1,2.8,0,0-6.6,3-9.6,5.6s-2.5,7-2.2,10.1c.4,3.1,1.3,6.5,5.4,6.4s6.2-3.2,8.9-7.2,4.5-6.1,7.1-6.1,4.6,3.8,4.6,6.5.7,6.9-2.3,7.9-13,2.5-19.6,7.4-6.6,13.6-6.6,15.7-.5,8.4,5.4,12.9,14.9,1.3,17.6-.2c2.8-1.5,5.4-3.6,5.4-3.6,0,0,3.5,6,9,6s18.2-5,19-11c.8-6-1.6-5.3-3.8-5.5h0ZM308.8,223.7c-.7,0-2.8.2-3-4.1-.2-4.4,1.6-6.1,4.1-7.2,2.5-1.1,2.5.8,2.5,4.9s-2,6.4-3.7,6.4h0Z"/>
  <path d="M161.8,175.9c-2.6-1.3-5.5-.2-10.4,1.3-4.9,1.5-7,2.1-10.9,3.8s-5.9,3.7-5.9,6.8,2.8,4,5.2,4.7,4.2,2.1,4.2,6.8v24.1s.2,3.8-4,5.7c-4.2,1.9-3.6,4.7-3.6,5.6s.9,4.2,5.3,4.2,6.2-.3,12.4-.3,12,.5,16.7.5,5.4-3,5.4-5.7-1.5-4.4-5.5-5.4-4.9-3.5-4.9-6.6v-23s.9-2.5,3.1-.1c2.2,2.4,4,6.5,6.2,7.7,2.2,1.1,6.5,1,8.8-3s4-10,.1-18.4-8.2-9.1-11.7-6.9-6,6.4-6.9,6.6-1.9-1.4-1.9-3.3.1-4-1.7-4.9h0Z"/>
  <rect class="st2" x="19" y="244.6" width="382.9" height="12"/>
  <path d="M33,159c-6,0-6.8-.4-8.6-.4s-6.4,1.3-6.4,5.4,1.9,4.7,4.1,5.8,3.3,2.4,4.2,8.2c.9,6,.3,42.9.3,44.5s-.3,3.6-2.5,5.2c-2.2,1.6-5.7,1.4-5.7,6.6s3.6,4.4,5.2,4.4,6.5-.2,11-.2,8.8.2,13.1.2,5-1.9,5-5-2.2-4.2-6-5.4-6.3-2.8-6.3-9.8v-15.6s-.6-3.1,2.4-.2c3,3,19.7,28.1,19.7,28.1,0,0,3.4,7.7,12.2,7.7s6.8-3.5,6.8-10.1v-53s-.3-5,3.2-6.1c4.1-1.3,4.7-1.1,4.7-6.1s-3-4.5-5.7-4.5-5.3.4-10.4.4-8.7-.5-12.3-.5-4.4,2.6-4.4,5.3,1.3,5,4.9,5.7c4.6.8,5.4,2.4,5.8,5.8.5,3.6.5,10.9.6,13.2.2,2.4.5,5.4-.8,5.4-2.5,0-8-9.2-13.2-18.1-6.8-11.5-8.2-17-11.6-17s-5.5.3-9.3.3h0Z"/>
  <path d="M109.2,176c-13.2,0-26,12.8-26.6,30.9-.6,18,8.8,33.8,27,33.8s29-13.2,29-32.6-11.8-32.1-29.4-32.1ZM111.4,227.1c-3.8,0-5.2-14.6-5.4-18.6-.2-4-.4-19.8,3.2-19.8s4.6,6.4,5.4,16.4c.8,10,.6,22-3.2,22h0Z"/>
  <path d="M202,179.3c-7.6,2.8-8.8,3.2-10.8,4-2,.8-4.4,1.6-4.4,5.4s8,3.4,8.2,7.8c.2,4.6.6,15,.6,21.6s.2,9.6-2.2,11c-2,1.1-4.6,1.8-4.6,5.6s2.8,4.6,5.4,4.6,6-.5,10.6-.5,6.5.2,9.6.1c4.6-.1,6.8-.6,6.8-3.8s-1.2-3.8-2.4-4.8c-1.2-1-2-3.6-2-9.2v-24.4s-.4-3.7,4-3.2c4.5.5,6.8,2.7,6.8,12.4s.4,11,.2,15.8c-.2,4.8.6,6-1,7.2-1.6,1.2-3,3.6-3,5.6s.8,4.4,6,4.4,3.6-.1,8-.1,4.8.1,8.6.1,4.4-2.2,4.4-4.8-3.2-3.2-3.2-5.8-.4-26.4-.4-29,0-5.6,3.6-5.6,7.4,1,7.4,11.6.4,11.8.4,16.2-.2,5-1,6.6c-.8,1.6-3.6,2-3.6,6.4s2.8,4.6,5.8,4.6,5.1-.4,10.3-.4,7.1.1,9.9.1,5.2-.3,5.2-5.1-2.8-3.5-4.6-5.2c-2-2-1.8-8.2-1.8-20.8s1.6-20.6-5-26.6c-6.6-6-12.4-4.6-17.2-2.6-4.8,2-10.6,7-10.6,7,0,0-3.6-8.6-11.6-8.6s-11.6,3.6-14,5.2c-2.4,1.6-2.8,2.6-4.2,2.6s-1.6-4-1.6-5.2,0-4.4-4.4-3c-4.4,1.4-8.2,2.8-8.2,2.8h0Z"/>
  <path d="M396.2,199.3c0,2.6.4,22.6.4,25.2,0,7.1,4.7,2.3,4.6,9.7,0,3.1-3,4.9-5.8,4.8-3.8-.1-4.2-.2-8.6-.2s-2.8.2-8,.2-6-2.4-6-4.4.5-3.9,2.5-5.4c1.2-.9,1.3-2.6,1.5-7.4s.1-8.8.1-15.8-2-11.2-6.3-12.6c-5.2-1.8-4.9,4.6-4.9,4.6v23.2c0,5.6.8,8.2,2,9.2s2.4,1.6,2.4,4.8-2.2,3.8-6.8,3.8-4.9-.2-9.5-.2-7,.6-9.6.6-5.5-.9-5.5-4.7,2.2-4.4,3.6-5.5c2.2-1.8,2.2-4.4,2.2-11s-.4-17-.6-21.6c-.2-4.4-8.2-3.6-8.2-7.8s2.4-4.6,4.4-5.4,3.2-1.2,10.8-4c0,0,3.8-1.4,8.2-2.8,4.4-1.4,4.4,1.8,4.4,3s.2,5.2,1.6,5.2,1.8-1,4.2-2.6c2.4-1.6,6-5.2,14-5.2s11.6,8.6,11.6,8.6c1.2,3.2,1.2,13.8,1.2,13.8h0Z"/>
  <path d="M390.8,161.9h4.2c1.7,0,2.7.9,2.7,2.3s-.5,1.9-1.5,2.2h0c1,.2,1.2,1,1.3,1.9,0,.9,0,1.8.5,2.4h-1.3c-.3-.4-.1-1.3-.3-2.2-.1-.9-.3-1.6-1.5-1.6h-2.9v3.8h-1.2v-8.8h0ZM394.4,166c1.1,0,2-.3,2-1.6s-.5-1.5-1.6-1.5h-2.9v3.1h2.5Z"/>
  <path d="M385.9,166.3c0-4.4,3.6-8,8-8h0c4.4,0,8,3.6,8,8h0c0,4.4-3.6,8-8,8h0c-4.4,0-8-3.6-8-8h0ZM387,166.3c0,3.9,3.1,7,7,7h0c3.9,0,7-3.1,7-7h0c0-3.9-3.1-7-7-7h0c-3.9,0-7,3.1-7,7h0Z"/>
  <path class="st1" d="M50.5,270l-6,5c-1.6-2-3.8-2.9-6.7-2.9s-5.4,1.1-7.3,3.3-2.9,4.9-2.9,8.3,1,6,2.9,8.2,4.3,3.3,7.1,3.3,5.6-1.3,7.3-3.8l6.5,4.9c-1.4,2-3.3,3.6-5.5,4.6-2.3,1-4.7,1.6-7.2,1.6-5.6,0-10.1-1.7-13.7-5.1-3.5-3.4-5.3-8-5.3-13.6s1.8-10.2,5.3-13.6c3.5-3.4,8.1-5.1,13.7-5.1s4.4.4,6.6,1.3,3.9,2.2,5.3,4h0Z"/>
  <path class="st1" d="M63.3,297.1c-3.5-3.4-5.3-8-5.3-13.6s1.8-10.2,5.3-13.6c3.6-3.4,8.1-5.1,13.7-5.1s10.1,1.7,13.7,5.1c3.6,3.4,5.3,8,5.3,13.6s-1.8,10.2-5.3,13.6c-3.6,3.4-8.1,5.1-13.7,5.1s-10.1-1.7-13.7-5.1ZM69,275.2c-2,2.2-3,4.9-3,8.3s1,6.1,3,8.3c2,2.2,4.7,3.2,7.9,3.2s5.9-1.1,7.9-3.2c2-2.1,3-4.9,3-8.3s-1-6.1-3-8.3-4.7-3.2-7.9-3.2-5.9,1.1-7.9,3.2Z"/>
  <path class="st1" d="M105.6,301.4v-35.8h11.7l8.1,23.3h0l8.1-23.3h11.7v35.8h-7.8v-27.4h-.1l-9.2,27.4h-5.9l-8.9-27.4h0v27.4h-7.8,0Z"/>
  <path class="st1" d="M156.8,301.4v-35.8h11.7l8.1,23.3h.1l8.1-23.3h11.7v35.8h-7.8v-27.4h-.1l-9.2,27.4h-5.9l-8.9-27.4h-.1v27.4h-7.8,0Z"/>
  <path class="st1" d="M208.4,301.4v-35.8h23.9v7.3h-16.2v6.7h15.3v7.3h-15.3v7.3h17.1v7.3h-24.8,0Z"/>
  <path class="st1" d="M243.7,301.4v-35.8h13.6c8.9,0,13.3,3.6,13.3,10.9s-.7,4.7-2,6.5-3.2,2.9-5.6,3.3l9,15.1h-9.3l-7.4-14.3h-3.8v14.3h-7.8,0ZM251.5,272.3v8.1h4.6c.9,0,1.7,0,2.3-.1.6,0,1.2-.2,2-.4s1.3-.6,1.7-1.2.6-1.3.6-2.2c0-2.8-2-4.1-6-4.1h-5.1,0Z"/>
  <path class="st1" d="M309.2,270l-6,5c-1.6-2-3.8-2.9-6.7-2.9s-5.4,1.1-7.3,3.3c-1.9,2.2-2.9,4.9-2.9,8.3s1,6,2.9,8.2c1.9,2.2,4.3,3.3,7.1,3.3s5.6-1.3,7.3-3.8l6.5,4.9c-1.4,2-3.3,3.6-5.5,4.6-2.3,1-4.7,1.6-7.2,1.6-5.6,0-10.1-1.7-13.7-5.1s-5.3-8-5.3-13.6,1.8-10.2,5.3-13.6c3.5-3.4,8.1-5.1,13.7-5.1s4.4.4,6.6,1.3,3.9,2.2,5.3,4h0Z"/>
  <path class="st1" d="M318.5,301.4v-35.8h7.8v35.8h-7.8Z"/>
  <path class="st1" d="M334,301.4l15.2-35.8h6.4l15.3,35.8h-8.8l-3-7.6h-13.7l-2.9,7.6h-8.5ZM356.6,287.1l-4.3-11.1-4.3,11.1h8.6Z"/>
  <path class="st1" d="M379.1,301.4v-35.8h7.8v28.5h14.4v7.3h-22.1Z"/>
  <path class="st1" d="M49.4,353.4l15.2-35.8h6.4l15.3,35.8h-8.8l-3-7.6h-13.7l-2.9,7.6h-8.6ZM71.9,339.1l-4.3-11.1-4.3,11.1h8.6Z"/>
  <path class="st1" d="M94.2,353.4v-35.8h13.1c8.9,0,13.4,3.6,13.4,10.9s-4.3,11-13,11h-5.7v13.9h-7.8ZM101.9,324.3v8.5h5.2c3.7,0,5.5-1.4,5.5-4.3s-2.2-4.2-6.7-4.2c0,0-4,0-4,0Z"/>
  <path class="st1" d="M129.8,353.4v-35.8h13.1c8.9,0,13.4,3.6,13.4,10.9s-4.3,11-13,11h-5.7v13.9h-7.8,0ZM137.6,324.3v8.5h5.2c3.6,0,5.5-1.4,5.5-4.3s-2.2-4.2-6.7-4.2h-4Z"/>
  <path class="st1" d="M188.2,320.5l-5.3,5.9c-.6-.8-1.4-1.4-2.5-1.8-1.1-.4-2.1-.6-3.1-.6s-2.5.3-3.6.9-1.6,1.5-1.6,2.8.3,1.6.9,2.2c.6.6,1.4,1.1,2.3,1.4s2,.7,3.2,1,2.3.7,3.5,1.2c1.2.5,2.2,1,3.2,1.7.9.7,1.7,1.7,2.3,2.9.6,1.2.9,2.7.9,4.4,0,3.8-1.3,6.7-3.9,8.7-2.6,2-5.8,3-9.7,3s-8.6-1.5-11.8-4.5l5.5-6.2c.8,1,1.8,1.9,3,2.5s2.5.9,3.8.9,2.6-.3,3.7-1c1.1-.7,1.6-1.6,1.6-2.8s-.4-1.9-1.2-2.6-1.8-1.2-3.1-1.6-2.6-.8-4-1.3-2.8-1.1-4-1.8-2.2-1.6-3.1-3c-.8-1.3-1.2-2.9-1.2-4.8,0-3.6,1.3-6.5,3.9-8.5,2.6-2,5.8-3.1,9.5-3.1s8,1.2,10.8,3.7h0Z"/>
  <path class="st1" d="M224.2,353.4v-28.8h-10v-7h27.8v7h-10v28.8h-7.8Z"/>
  <path class="st1" d="M250.6,353.4v-35.8h23.9v7.3h-16.2v6.7h15.3v7.3h-15.3v7.3h17v7.3h-24.8,0Z"/>
  <path class="st1" d="M282.3,353.4l15.2-35.8h6.4l15.3,35.8h-8.8l-3-7.6h-13.7l-2.9,7.6h-8.5ZM304.8,339.1l-4.3-11.1-4.3,11.1h8.6Z"/>
  <path class="st1" d="M327.1,353.4v-35.8h11.7l8.1,23.3h.1l8.1-23.3h11.7v35.8h-7.8v-27.4h-.1l-9.2,27.4h-5.9l-8.9-27.4h-.1v27.4h-7.8,0Z"/>
</svg>